<svg xmlns="http://www.w3.org/2000/svg" width="18.129" height="18.128" viewBox="0 0 18.129 18.128"><defs><style>.a{fill:#3c3c3c;}</style></defs><g transform="translate(0 0)"><g transform="translate(0 0)"><path class="a" d="M10.712,3.443V2.032C10.712-.678,0-.678,0,2.032v8.255c0,1.065,1.667,1.729,3.673,1.965-.734.329-1.2.773-1.2,1.337v2.476c0,1.355,2.695,2.064,5.356,2.064s5.356-.709,5.356-2.064V14.82c2.521-.069,4.944-.772,4.944-2.057V5.334C18.128,3.623,13.86,2.994,10.712,3.443ZM5.356.824c2.932,0,4.532.816,4.532,1.236S8.288,3.3,5.356,3.3.824,2.479.824,2.06,2.424.824,5.356.824ZM.824,3.206a9.665,9.665,0,0,0,4.532.914,9.665,9.665,0,0,0,4.532-.914v.409c-1.432.318-2.472.9-2.472,1.74V5.6a13.069,13.069,0,0,1-2.06.168C2.424,5.768.824,4.952.824,4.532V3.206Zm7.416,8.24c.078.047.16.093.248.137l-.248-.009ZM.824,5.678a9.665,9.665,0,0,0,4.532.914,13.967,13.967,0,0,0,2.06-.162V8.484a13.069,13.069,0,0,1-2.06.168C2.424,8.652.824,7.836.824,7.416V5.678Zm0,4.622V8.562a9.665,9.665,0,0,0,4.532.914,13.967,13.967,0,0,0,2.06-.162v2.054a13.069,13.069,0,0,1-2.06.168C2.424,11.536.824,10.72.824,10.3ZM12.36,16.068c0,.42-1.6,1.236-4.532,1.236S3.3,16.488,3.3,16.068V14.743a9.665,9.665,0,0,0,4.532.914,10.079,10.079,0,0,0,4.4-.837l.13,0v1.246ZM7.828,14.832C4.9,14.832,3.3,14.016,3.3,13.6S4.9,12.36,7.828,12.36s4.532.816,4.532,1.236S10.761,14.832,7.828,14.832Zm9.476-2.06c0,.4-1.46,1.148-4.12,1.222v-.4c0-.515-.39-.931-1.018-1.25.2.008.4.014.606.014a9.665,9.665,0,0,0,4.532-.914v1.326Zm0-2.472c0,.42-1.6,1.236-4.532,1.236S8.24,10.72,8.24,10.3V8.974a9.665,9.665,0,0,0,4.532.914A9.665,9.665,0,0,0,17.3,8.974Zm0-2.472c0,.42-1.6,1.236-4.532,1.236S8.24,8.248,8.24,7.828V6.5a9.665,9.665,0,0,0,4.532.914A9.665,9.665,0,0,0,17.3,6.5ZM12.772,6.592c-2.932,0-4.532-.816-4.532-1.236S9.84,4.12,12.772,4.12,17.3,4.936,17.3,5.356,15.7,6.592,12.772,6.592Z" transform="translate(0 0)"/></g></g></svg>