<svg xmlns="http://www.w3.org/2000/svg" width="14.167" height="15.586" viewBox="0 0 14.167 15.586"><defs><style>.a{fill:#0e1317;fill-rule:evenodd;}</style></defs><g transform="translate(0 0)"><path class="a" d="M11.7,8.592a4.25,4.25,0,1,0-5.242,0A7.083,7.083,0,0,0,2,15.166v.708a.708.708,0,1,0,1.417,0v-.708a5.667,5.667,0,1,1,11.333,0v.708a.708.708,0,1,0,1.417,0v-.708A7.083,7.083,0,0,0,11.7,8.592ZM6.25,5.249A2.833,2.833,0,1,1,9.083,8.082,2.833,2.833,0,0,1,6.25,5.249Z" transform="translate(-2 -0.997)"/></g></svg>