<svg xmlns="http://www.w3.org/2000/svg" width="25" height="25" viewBox="0 0 25 25">
  <g id="ico_coin" transform="translate(511.601 -741.187)">
    <g id="coin" transform="translate(-511.601 741.187)">
      <path id="Path_3209" data-name="Path 3209" d="M12.5,0A12.5,12.5,0,1,1,0,12.5,12.5,12.5,0,0,1,12.5,0Z" fill="#f4b844"/>
      <circle id="Ellipse_23" data-name="Ellipse 23" cx="9.42" cy="9.42" r="9.42" transform="translate(3.08 3.08)" fill="#fedb41"/>
    </g>
    <path id="Path_3210" data-name="Path 3210" d="M7.119-2.66A3.058,3.058,0,0,1,6.155-.6,3.188,3.188,0,0,1,3.979.117,3.009,3.009,0,0,1,2.3-.357,3.1,3.1,0,0,1,1.172-1.7a4.79,4.79,0,0,1-.4-1.989V-4.8a4.834,4.834,0,0,1,.4-2.016A3.064,3.064,0,0,1,2.312-8.171a3.123,3.123,0,0,1,1.72-.478A3.054,3.054,0,0,1,6.2-7.91a3.093,3.093,0,0,1,.923,2.045H6.393A2.171,2.171,0,0,0,4.031-8.039a2.238,2.238,0,0,0-1.849.868,3.764,3.764,0,0,0-.688,2.4v1.044a3.791,3.791,0,0,0,.671,2.357,2.161,2.161,0,0,0,1.813.88,2.4,2.4,0,0,0,1.705-.542A2.6,2.6,0,0,0,6.393-2.66Z" transform="translate(-503.369 757.835)" fill="#f4b844"/>
  </g>
</svg>
