<svg xmlns="http://www.w3.org/2000/svg" width="77.661" height="77.661" viewBox="0 0 77.661 77.661"><defs><style>.a{fill:#8f95e6;}.b{fill:#6770e6;}.c{fill:#339;}.d{fill:#5861c7;}.e{fill:#ffe4d1;}.f{fill:#ffefe4;}.g{fill:#4e56b0;}.h{fill:#9fa5ff;}</style></defs><path class="a" d="M77.665,38.83A38.83,38.83,0,1,1,38.834,0,38.83,38.83,0,0,1,77.665,38.83Zm0,0" transform="translate(-0.004)"/><path class="b" d="M38.834,283.314A38.829,38.829,0,0,1,.036,246c-.02.5-.032,1.008-.032,1.517a38.83,38.83,0,1,0,77.661,0c0-.508-.013-1.013-.033-1.517A38.829,38.829,0,0,1,38.834,283.314Zm0,0" transform="translate(-0.004 -208.686)"/><path class="c" d="M169.406,71.072c-.441-1.706-2.325-4.126-9.461-4.126-11.025,0-12.6,1.633-15.53-1.187-2.475-2.379-3.93,9.071-.629,12.707a24.57,24.57,0,0,0-.278,10.308h31.021S177.132,76.726,169.406,71.072Zm0,0" transform="translate(-120.349 -55.512)"/><path class="d" d="M144.415,68.513c2.935,2.82,4.5,1.187,15.53,1.187,7.137,0,9.02,2.419,9.461,4.126,4.109,3.006,5.3,7.822,5.507,11.672.207-3.983-.331-10.637-5.507-14.425-.441-1.707-2.324-4.126-9.461-4.126-11.025,0-12.595,1.632-15.53-1.187-1.627-1.564-2.812,2.846-2.5,7.086C142.147,69.711,143.146,67.293,144.415,68.513Zm0,0" transform="translate(-120.349 -55.512)"/><path class="e" d="M138.3,209.168a4.92,4.92,0,0,0-4.012-2.449c-2.675,0-4.569,11.759,4.012,9.8Zm0,0" transform="translate(-112.005 -175.363)"/><path class="e" d="M336.543,209.168a4.92,4.92,0,0,1,4.012-2.449c2.675,0,4.569,11.759-4.012,9.8Zm0,0" transform="translate(-285.496 -175.363)"/><path class="f" d="M176.99,118.984c-20.491,0-16.574,33.607,0,33.607S197.481,118.984,176.99,118.984Zm0,0" transform="translate(-138.321 -100.937)"/><path class="c" d="M176.989,106.568s-13.938-1.967-13.938,15.917c0,0,1.755-7.392,5.781-9.407,1.875-.939,2.562,1.44,8.157,1.44s6.282-2.379,8.156-1.44c4.027,2.016,5.781,9.407,5.781,9.407C190.926,104.6,176.989,106.568,176.989,106.568Zm0,0" transform="translate(-138.32 -90.35)"/><path class="d" d="M127.146,336.794a9.179,9.179,0,0,0-5.633-5.256L108.921,327.4a2.917,2.917,0,0,1-2.006-2.745l-.045-5.085a11.6,11.6,0,0,1-15.63.138l.043,4.907a2.917,2.917,0,0,1-2.007,2.8L76.688,331.54a9.179,9.179,0,0,0-5.629,5.235,38.827,38.827,0,0,0,56.087.018Zm0,0" transform="translate(-60.281 -271.097)"/><path class="g" d="M100.468,434.114c.223-.008.447-.015.669-.026.132-.006.262-.017.393-.025.2-.012.408-.024.611-.04.137-.011.274-.025.411-.037.2-.017.391-.033.586-.053.14-.014.28-.032.42-.048.19-.021.38-.042.569-.066.142-.018.284-.04.425-.06.186-.026.372-.052.558-.08.142-.022.282-.047.423-.07.184-.031.369-.06.552-.094.14-.025.28-.053.42-.08.182-.036.364-.07.546-.108.139-.028.277-.06.416-.09.181-.04.362-.079.542-.121.137-.032.273-.066.409-.1.18-.044.36-.089.54-.136l.4-.109c.18-.049.359-.1.538-.15.132-.038.262-.078.394-.117.18-.054.359-.108.537-.164l.385-.125c.18-.059.358-.118.537-.18l.375-.132c.18-.063.358-.129.537-.194l.366-.139q.268-.1.534-.209l.357-.146q.268-.111.535-.226c.116-.049.23-.1.344-.15q.269-.118.536-.241c.111-.052.223-.1.333-.156q.27-.127.538-.259l.319-.158q.271-.136.539-.276l.307-.162q.271-.145.539-.293l.3-.165c.18-.1.36-.206.539-.311l.283-.167c.181-.108.362-.219.542-.331l.266-.166q.274-.173.544-.351l.252-.165c.183-.122.365-.247.546-.372l.236-.164c.185-.13.368-.262.55-.395l.218-.159q.28-.207.556-.42l.2-.152c.189-.147.376-.3.562-.446l.179-.144q.288-.236.571-.478l.153-.129q.3-.254.584-.513l.126-.113q.3-.273.6-.552l.1-.089q.315-.3.624-.6c.018-.018.037-.035.055-.053q.333-.332.659-.672l0,0a9.2,9.2,0,0,0-1.087-1.943,38.829,38.829,0,0,1-53.908-.016,9.209,9.209,0,0,0-1.091,1.939l.007.007q.324.338.655.668l.076.074q.3.3.6.585l.123.114q.284.267.572.529c.052.047.1.092.156.139q.275.246.554.487c.06.053.123.1.184.155.179.152.359.3.541.453.069.057.139.112.208.168.177.142.353.284.532.423.075.059.152.116.228.175.174.134.35.267.527.4.081.06.164.12.246.18q.26.189.521.374c.088.062.177.122.265.183q.257.179.518.353l.278.183q.257.169.516.334l.294.184q.256.159.514.314l.308.182c.17.1.342.2.514.3.106.06.212.119.319.178.171.095.343.189.516.281.109.059.219.116.329.174q.258.134.517.266c.113.057.228.114.342.169.171.084.344.168.516.249q.176.084.353.165.258.118.517.233l.363.159c.172.074.344.146.518.218l.374.153q.258.1.517.2l.383.146q.26.1.52.189l.39.137c.174.06.348.117.523.175.133.043.265.087.4.129.174.055.349.108.524.161.136.041.271.082.408.121.175.05.351.1.526.147.138.037.275.076.413.112.177.046.354.089.531.133.139.034.278.069.418.1.177.041.355.081.534.12.142.031.283.063.425.092.178.037.358.071.537.106.143.027.286.056.429.082.18.033.361.062.543.092.144.024.287.049.432.072.183.028.367.053.55.079.144.02.287.042.432.06.186.024.374.044.562.066.143.017.285.034.428.049.192.02.385.036.578.053.139.013.278.026.419.037.2.016.4.027.608.04.132.008.264.018.4.025.226.012.453.019.679.027.111,0,.22.009.331.012q.507.013,1.017.014t1.016-.013C100.241,434.124,100.354,434.118,100.468,434.114Zm0,0" transform="translate(-60.281 -356.479)"/><path class="e" d="M174.55,338.418a15.107,15.107,0,0,0,14.125-9.752l-3.853-1.266a2.916,2.916,0,0,1-2.006-2.745l-.045-5.085a11.6,11.6,0,0,1-15.63.138l.043,4.907a2.917,2.917,0,0,1-2.007,2.8l-4.645,1.523A15.1,15.1,0,0,0,174.55,338.418Zm0,0" transform="translate(-136.182 -271.097)"/><path class="h" d="M38.834,3.034a38.829,38.829,0,0,1,38.8,37.314c.02-.5.033-1.008.033-1.517A38.83,38.83,0,1,0,0,38.83c0,.508.012,1.013.032,1.517A38.829,38.829,0,0,1,38.834,3.034Zm0,0" transform="translate(-0.004)"/></svg>