<svg width="27" height="27" viewBox="0 0 27 27" fill="none" xmlns="http://www.w3.org/2000/svg">
<path d="M13.5 4.5C14.6935 4.5 15.8381 4.97411 16.682 5.81802C17.5259 6.66193 18 7.80653 18 9C18 10.1935 17.5259 11.3381 16.682 12.182C15.8381 13.0259 14.6935 13.5 13.5 13.5C12.3065 13.5 11.1619 13.0259 10.318 12.182C9.47411 11.3381 9 10.1935 9 9C9 7.80653 9.47411 6.66193 10.318 5.81802C11.1619 4.97411 12.3065 4.5 13.5 4.5ZM13.5 6.75C12.9033 6.75 12.331 6.98705 11.909 7.40901C11.4871 7.83097 11.25 8.40326 11.25 9C11.25 9.59674 11.4871 10.169 11.909 10.591C12.331 11.0129 12.9033 11.25 13.5 11.25C14.0967 11.25 14.669 11.0129 15.091 10.591C15.5129 10.169 15.75 9.59674 15.75 9C15.75 8.40326 15.5129 7.83097 15.091 7.40901C14.669 6.98705 14.0967 6.75 13.5 6.75ZM13.5 14.625C16.5037 14.625 22.5 16.1213 22.5 19.125V22.5H4.5V19.125C4.5 16.1213 10.4963 14.625 13.5 14.625ZM13.5 16.7625C10.1588 16.7625 6.6375 18.405 6.6375 19.125V20.3625H20.3625V19.125C20.3625 18.405 16.8413 16.7625 13.5 16.7625Z" fill="white"/>
</svg>
