<svg width="27" height="28" viewBox="0 0 27 28" fill="none" xmlns="http://www.w3.org/2000/svg">
<path d="M23.625 13.0508V6.177C23.625 4.9395 22.6238 3.927 21.375 3.927H16.6725C16.2 2.622 14.9625 1.677 13.5 1.677C12.0375 1.677 10.8 2.622 10.3275 3.927H5.625C4.3875 3.927 3.375 4.9395 3.375 6.177V21.927C3.375 23.1758 4.3875 24.177 5.625 24.177H12.4987C13.9162 25.572 15.8512 26.427 18 26.427C22.3538 26.427 25.875 22.9058 25.875 18.552C25.875 16.4033 25.02 14.4683 23.625 13.0508ZM13.5 3.927C14.1187 3.927 14.625 4.43325 14.625 5.052C14.625 5.67075 14.1187 6.177 13.5 6.177C12.8813 6.177 12.375 5.67075 12.375 5.052C12.375 4.43325 12.8813 3.927 13.5 3.927ZM5.625 21.927V6.177H7.875V8.427H19.125V6.177H21.375V11.442C20.3512 10.9583 19.215 10.677 18 10.677H7.875V12.927H12.4875C11.8125 13.5683 11.295 14.3333 10.89 15.177H7.875V17.427H10.215C10.1588 17.7983 10.125 18.1695 10.125 18.552C10.125 19.767 10.4063 20.9033 10.89 21.927H5.625ZM18 24.177C14.895 24.177 12.375 21.657 12.375 18.552C12.375 15.447 14.895 12.927 18 12.927C21.105 12.927 23.625 15.447 23.625 18.552C23.625 21.657 21.105 24.177 18 24.177ZM18.5625 18.8333L21.78 20.7345L20.9363 22.107L16.875 19.677V14.052H18.5625V18.8333Z" fill="white"/>
</svg>
