<svg xmlns="http://www.w3.org/2000/svg" width="50" height="50" viewBox="0 0 50 50">
  <g id="ico_coin" transform="translate(512 -740.788)">
    <g id="coin" transform="translate(-512 740.788)">
      <path id="Path_3209" data-name="Path 3209" d="M25,0A25,25,0,1,1,0,25,25,25,0,0,1,25,0Z" fill="#f4b844"/>
      <circle id="Ellipse_23" data-name="Ellipse 23" cx="18.84" cy="18.84" r="18.84" transform="translate(6.16 6.16)" fill="#fedb41"/>
    </g>
    <path id="Path_3248" data-name="Path 3248" d="M12.148-1.865A4.331,4.331,0,0,1,10.132-.317,8.146,8.146,0,0,1,7.119.2,5.843,5.843,0,0,1,4.033-.62,5.433,5.433,0,0,1,1.948-2.939a8.011,8.011,0,0,1-.757-3.486v-1.24a7.478,7.478,0,0,1,1.5-4.98A5.223,5.223,0,0,1,6.9-14.414a5.4,5.4,0,0,1,3.584,1.138,4.956,4.956,0,0,1,1.66,3.228H10.273a3.1,3.1,0,0,0-3.359-2.832,3.319,3.319,0,0,0-2.856,1.324A6.466,6.466,0,0,0,3.076-7.72v1.163A6.06,6.06,0,0,0,4.17-2.75,3.545,3.545,0,0,0,7.129-1.338a6.536,6.536,0,0,0,1.846-.234,2.854,2.854,0,0,0,1.309-.789V-5.547H6.992V-7.08h5.156Z" transform="translate(-494 773.788)" fill="#f4b844"/>
  </g>
</svg>
