<svg xmlns="http://www.w3.org/2000/svg" width="32.981" height="30" viewBox="0 0 32.981 30">
  <path id="icon-menu-11" d="M32.482,9.5H30.824A6.284,6.284,0,0,0,30.983,8a5.574,5.574,0,0,0-6-6c-3.244,0-5.95,3.4-7.5,5.889-1.546-2.484-4.252-5.889-7.5-5.889A5.574,5.574,0,0,0,4,8a6.284,6.284,0,0,0,.159,1.5H2.5A1.5,1.5,0,0,0,1,11v7.5A1.5,1.5,0,0,0,2.5,20H4V30.489a1.5,1.5,0,0,0,1.5,1.5H29.483a1.5,1.5,0,0,0,1.5-1.5V20h1.5a1.5,1.5,0,0,0,1.5-1.5V11A1.5,1.5,0,0,0,32.482,9.5ZM9.995,5c1.669,0,3.626,2.373,4.959,4.5H10.828C7,9.5,7,8.9,7,8,7,5.314,8.709,5,9.995,5Zm6,23.986H7V20h8.995Zm0-11.993H4V12.5H15.991ZM24.986,5c1.286,0,3,.31,3,3,0,.9,0,1.5-3.832,1.5H20.027C21.36,7.377,23.318,5,24.986,5Zm3,23.986H18.99V20h8.995Zm3-11.993H18.99V12.5H30.983Z" transform="translate(-1 -1.988)"/>
</svg>
