<svg xmlns="http://www.w3.org/2000/svg" width="30.5" height="30.5" viewBox="0 0 30.5 30.5">
  <g id="icon-menu-6" transform="translate(-2766.979 -2319.75)">
    <path id="Path_3241" data-name="Path 3241" d="M29.294,11.584l-2.306-.5a12.548,12.548,0,0,0-.742-1.789l1.276-1.986a.9.9,0,0,0-.12-1.119L23.811,2.6a.9.9,0,0,0-1.119-.12L20.706,3.754a12.549,12.549,0,0,0-1.789-.742l-.5-2.306A.9.9,0,0,0,17.54,0H12.46a.9.9,0,0,0-.876.706l-.5,2.306a12.549,12.549,0,0,0-1.789.742L7.308,2.477a.9.9,0,0,0-1.119.12L2.6,6.189a.9.9,0,0,0-.12,1.119L3.754,9.294a12.549,12.549,0,0,0-.742,1.789l-2.306.5A.9.9,0,0,0,0,12.46v5.08a.9.9,0,0,0,.706.876l2.306.5a12.549,12.549,0,0,0,.742,1.789L2.477,22.692a.9.9,0,0,0,.12,1.119L6.189,27.4a.9.9,0,0,0,1.119.12l1.986-1.276a12.548,12.548,0,0,0,1.789.742l.5,2.306A.9.9,0,0,0,12.46,30h5.08a.9.9,0,0,0,.876-.706l.5-2.306a12.548,12.548,0,0,0,1.789-.742l1.986,1.276a.9.9,0,0,0,1.119-.12L27.4,23.811a.9.9,0,0,0,.12-1.119l-1.276-1.986a12.548,12.548,0,0,0,.742-1.789l2.306-.5A.9.9,0,0,0,30,17.54V12.46A.9.9,0,0,0,29.294,11.584Zm-1.087,5.233-2.114.46a.9.9,0,0,0-.673.635,10.755,10.755,0,0,1-.993,2.4.9.9,0,0,0,.027.925l1.171,1.821-2.57,2.57-1.821-1.171a.9.9,0,0,0-.925-.027,10.762,10.762,0,0,1-2.4.993.9.9,0,0,0-.635.673l-.46,2.114H13.183l-.46-2.114a.9.9,0,0,0-.635-.673,10.756,10.756,0,0,1-2.4-.993.9.9,0,0,0-.925.027L6.946,25.624l-2.57-2.57,1.171-1.821a.9.9,0,0,0,.027-.925,10.767,10.767,0,0,1-.993-2.4.9.9,0,0,0-.673-.635l-2.114-.46V13.183l2.114-.46a.9.9,0,0,0,.673-.635,10.756,10.756,0,0,1,.993-2.4.9.9,0,0,0-.027-.925L4.376,6.946l2.57-2.57L8.767,5.547a.9.9,0,0,0,.925.027,10.762,10.762,0,0,1,2.4-.993.9.9,0,0,0,.635-.673l.46-2.114h3.635l.46,2.114a.9.9,0,0,0,.635.673,10.756,10.756,0,0,1,2.4.993.9.9,0,0,0,.925-.027l1.821-1.171,2.57,2.57L24.453,8.767a.9.9,0,0,0-.027.925,10.756,10.756,0,0,1,.993,2.4.9.9,0,0,0,.673.635l2.114.46Zm0,0" transform="translate(2767.229 2320)" stroke="#000" stroke-width="0.5"/>
    <path id="Path_3247" data-name="Path 3247" d="M140.781,133.609a7.171,7.171,0,1,0,7.171,7.171A7.18,7.18,0,0,0,140.781,133.609Zm0,12.55a5.378,5.378,0,1,1,5.378-5.378A5.385,5.385,0,0,1,140.781,146.159Zm0,0" transform="translate(2641.449 2194.219)" stroke="#000" stroke-width="0.5"/>
  </g>
</svg>
