<svg xmlns="http://www.w3.org/2000/svg" width="35.619" height="32" viewBox="0 0 35.619 32">
  <g id="icon-menu-3" transform="translate(0 -26.013)">
    <g id="Group_26" data-name="Group 26" transform="translate(0 26.013)">
      <path id="Path_3142" data-name="Path 3142" d="M35.34,207.9l-.7-1.2a.7.7,0,0,0-.95-.255L26.667,210.5H8.953l-7.027-4.057a.7.7,0,0,0-.95.255l-.7,1.2a2.089,2.089,0,0,0,.764,2.851l7.027,4.057v8.907a2.089,2.089,0,0,0,2.087,2.087h15.3a2.089,2.089,0,0,0,2.087-2.087v-8.907l7.027-4.057a2.091,2.091,0,0,0,.764-2.851ZM17.5,224.409l8.655-8.655v3.6L21.1,224.409Zm8.655-10.623L15.535,224.409h-3.6l12.522-12.522h1.7Zm-14.8-1.9-1.9,1.9v-1.9Zm-9.622-2.343a.7.7,0,0,1-.255-.95l.348-.6,6.238,3.6V213.2Zm7.723,11.775,2.5-2.5a.7.7,0,0,0-.984-.984l-1.519,1.519v-3.6l3.866-3.866h3.6l-1.518,1.518a.7.7,0,1,0,.984.984l2.5-2.5h3.6l-12.5,12.5a.7.7,0,0,1-.529-.675Zm16,3.09H23.068l3.09-3.09v2.394A.7.7,0,0,1,25.462,224.409ZM34.2,209.121a.69.69,0,0,1-.322.423L27.549,213.2v-1.607l6.238-3.6.348.6A.69.69,0,0,1,34.2,209.121Z" transform="translate(0 -193.801)"/>
      <path id="Path_3143" data-name="Path 3143" d="M189.876,31.914l-.2,1.539a1.378,1.378,0,0,0,.117.86,1.391,1.391,0,0,0,1.859.642l1.424-.693,1.465.7a1.391,1.391,0,0,0,1.975-1.447l-.219-1.57,1.076-1.135a1.391,1.391,0,0,0-.726-2.369l-1.56-.276-.775-1.425h0a1.389,1.389,0,0,0-2.445.011l-.745,1.4-1.565.291a1.389,1.389,0,0,0-.78,2.336Zm-.076-2.107,1.9-.354a.7.7,0,0,0,.487-.357l.9-1.692.933,1.717a.7.7,0,0,0,.49.353l1.892.334-.03.03-1.319,1.391a.7.7,0,0,0-.184.575l.267,1.9-1.768-.842a.7.7,0,0,0-.6,0l-1.724.841q.005-.025.008-.05l.248-1.892a.7.7,0,0,0-.189-.573l-1.334-1.379Z" transform="translate(-175.282 -26.013)"/>
      <path id="Path_3144" data-name="Path 3144" d="M246.55,174.351v3.225a.7.7,0,1,0,1.391,0v-3.225a.7.7,0,1,0-1.391,0Z" transform="translate(-229.399 -163.384)"/>
      <path id="Path_3145" data-name="Path 3145" d="M124.252,148.752a.7.7,0,0,0,.255.95,5.913,5.913,0,0,1,2.529,4.416.7.7,0,0,0,.694.658h.038a.7.7,0,0,0,.657-.732A7.228,7.228,0,0,0,125.2,148.5.7.7,0,0,0,124.252,148.752Z" transform="translate(-115.521 -139.89)"/>
      <path id="Path_3146" data-name="Path 3146" d="M25.673,60.95l1.442.56.56,1.441a1.266,1.266,0,0,0,2.361,0l.56-1.442,1.441-.56a1.266,1.266,0,0,0,0-2.361l-1.442-.56-.56-1.441a1.266,1.266,0,0,0-2.361,0l-.56,1.442-1.441.56a1.266,1.266,0,0,0,0,2.361ZM27.9,59.215a.7.7,0,0,0,.4-.4l.554-1.427.554,1.427a.7.7,0,0,0,.4.4l1.427.554-1.427.554a.7.7,0,0,0-.4.4l-.554,1.427L28.3,60.72a.7.7,0,0,0-.4-.4l-1.427-.554Z" transform="translate(-23.134 -53.708)"/>
      <path id="Path_3147" data-name="Path 3147" d="M327.176,154.775h.038a.7.7,0,0,0,.694-.658,5.914,5.914,0,0,1,2.529-4.416.7.7,0,0,0-.7-1.2,7.228,7.228,0,0,0-3.223,5.546A.7.7,0,0,0,327.176,154.775Z" transform="translate(-303.804 -139.89)"/>
      <path id="Path_3148" data-name="Path 3148" d="M373.236,60.949l1.442.56.56,1.44a1.266,1.266,0,0,0,2.361,0l.56-1.442,1.44-.56a1.266,1.266,0,0,0,0-2.361l-1.441-.56-.56-1.44a1.266,1.266,0,0,0-2.361,0l-.56,1.442-1.44.56a1.266,1.266,0,0,0,0,2.361Zm2.231-1.735a.7.7,0,0,0,.4-.4l.554-1.427.554,1.427a.7.7,0,0,0,.4.4l1.427.554-1.427.554a.7.7,0,0,0-.4.4l-.554,1.427-.554-1.427a.7.7,0,0,0-.4-.4l-1.427-.554Z" transform="translate(-346.519 -53.708)"/>
      <path id="Path_3149" data-name="Path 3149" d="M187.428,338.117a.7.7,0,1,0,0-1.391h0a.7.7,0,0,0,0,1.391Z" transform="translate(-173.742 -315.111)"/>
    </g>
  </g>
</svg>
