<svg xmlns="http://www.w3.org/2000/svg" width="27.5" height="32" viewBox="0 0 27.5 32">
  <g id="icon-menu-2" transform="translate(-36.002)">
    <g id="Group_98" data-name="Group 98" transform="translate(36.002 0)">
      <path id="Path_3229" data-name="Path 3229" d="M61.627,257H54.752v-3.125A1.877,1.877,0,0,0,52.877,252h-6.25a1.877,1.877,0,0,0-1.875,1.875v.625H37.877A1.877,1.877,0,0,0,36,256.377v11.25a.625.625,0,0,0,.625.625h26.25a.625.625,0,0,0,.625-.625v-8.75A1.877,1.877,0,0,0,61.627,257ZM53.5,267H46v-1.563a.625.625,0,0,0-1.25,0V267h-7.5V256.377a.626.626,0,0,1,.625-.625h6.875v4.062a.625.625,0,1,0,1.25,0v-5.937a.626.626,0,0,1,.625-.625h6.25a.626.626,0,0,1,.625.625Zm8.75,0h-7.5v-8.75h6.875a.626.626,0,0,1,.625.625Z" transform="translate(-36.002 -236.252)"/>
      <path id="Path_3230" data-name="Path 3230" d="M369.44,373.878a1.868,1.868,0,0,0-3.289-1.219.625.625,0,0,0,.951.812.618.618,0,0,1,1.089.407.623.623,0,0,1-.187.447.625.625,0,0,0,.087.962.939.939,0,0,1-.519,1.716.917.917,0,0,1-.564-.192.625.625,0,1,0-.762.991,2.156,2.156,0,0,0,1.326.451,2.189,2.189,0,0,0,1.689-3.57A1.872,1.872,0,0,0,369.44,373.878Z" transform="translate(-345.376 -348.753)"/>
      <path id="Path_3231" data-name="Path 3231" d="M89.128,336.986H87.622c.138-.127.31-.262.511-.417a3.218,3.218,0,0,0,1.619-2.531,2,2,0,0,0-1.477-1.994,1.818,1.818,0,0,0-2.091.976.625.625,0,0,0,1.1.586.571.571,0,0,1,.678-.351.747.747,0,0,1,.536.768c-.008.641-.433,1.016-1.133,1.556A2.645,2.645,0,0,0,86,337.611a.625.625,0,0,0,.625.625h2.5a.625.625,0,1,0,0-1.25Z" transform="translate(-82.878 -311.236)"/>
      <path id="Path_3232" data-name="Path 3232" d="M236.924,297h-.068v-4.375a.625.625,0,0,0-.937-.541l-.693.4a.625.625,0,0,0,.38,1.163V297h-.068a.625.625,0,1,0,0,1.25h1.386a.625.625,0,1,0,0-1.25Z" transform="translate(-222.481 -273.753)"/>
      <path id="Path_3233" data-name="Path 3233" d="M156.4,27.937l-.313,2.389a1.6,1.6,0,0,0,.135,1.01,1.62,1.62,0,0,0,2.165.747l2.2-1.069,2.257,1.075a1.619,1.619,0,0,0,2.3-1.685l-.339-2.423,1.668-1.759a1.62,1.62,0,0,0-.841-2.764l-2.408-.426-1.194-2.2h0a1.616,1.616,0,0,0-2.846.013l-1.15,2.158-2.418.449a1.618,1.618,0,0,0-.912,2.72Zm-.788-3.148a.364.364,0,0,1,.2-.1l.021,0,2.724-.506a.625.625,0,0,0,.437-.321l1.291-2.423a.366.366,0,0,1,.645,0l1.337,2.46a.625.625,0,0,0,.44.317l2.705.479a.369.369,0,0,1,.189.634l-.027.027-1.886,1.99a.625.625,0,0,0-.165.516l.38,2.72a.37.37,0,0,1-.523.384l-2.529-1.2a.625.625,0,0,0-.542,0l-2.468,1.2a.37.37,0,0,1-.494-.17.366.366,0,0,1-.03-.236c0-.015.006-.03.008-.045l.355-2.707a.625.625,0,0,0-.17-.515L155.6,25.309a.367.367,0,0,1,.01-.519Z" transform="translate(-146.86 -18.743)"/>
      <path id="Path_3234" data-name="Path 3234" d="M94.813,1.167,97.28,2.591A.625.625,0,0,0,97.9,1.508L95.438.084a.625.625,0,1,0-.625,1.082Z" transform="translate(-90.844 0)"/>
      <path id="Path_3235" data-name="Path 3235" d="M61.281,113.643a.64.64,0,0,0,.091-.007l2.819-.41a.625.625,0,1,0-.18-1.237l-2.819.41a.625.625,0,0,0,.089,1.244Z" transform="translate(-59.116 -104.984)"/>
      <path id="Path_3236" data-name="Path 3236" d="M106.393,196.651l-2.014,2.014a.625.625,0,1,0,.884.884l2.014-2.014a.625.625,0,0,0-.884-.884Z" transform="translate(-99.933 -184.189)"/>
      <path id="Path_3237" data-name="Path 3237" d="M358.653,2.675a.623.623,0,0,0,.312-.084l2.467-1.424a.625.625,0,0,0-.625-1.082L358.34,1.508a.625.625,0,0,0,.313,1.166Z" transform="translate(-337.901 0)"/>
      <path id="Path_3238" data-name="Path 3238" d="M386.246,112.517a.625.625,0,0,0,.529.708l2.819.41a.632.632,0,0,0,.091.007.625.625,0,0,0,.089-1.244l-2.819-.41A.625.625,0,0,0,386.246,112.517Z" transform="translate(-364.35 -104.983)"/>
      <path id="Path_3239" data-name="Path 3239" d="M355.761,196.651a.625.625,0,0,0,0,.884l2.014,2.014a.625.625,0,0,0,.884-.884l-2.014-2.014A.625.625,0,0,0,355.761,196.651Z" transform="translate(-335.605 -184.189)"/>
      <path id="Path_3240" data-name="Path 3240" d="M176.627,412a.625.625,0,1,0,.625.625h0A.625.625,0,0,0,176.627,412Z" transform="translate(-167.252 -386.25)"/>
    </g>
  </g>
</svg>
