<svg xmlns="http://www.w3.org/2000/svg" width="51.089" height="32" viewBox="0 0 51.089 32">
  <g id="icon-menu-1" transform="translate(0 -95.162)">
    <g id="Group_24" data-name="Group 24" transform="translate(0 95.162)">
      <path id="Path_3131" data-name="Path 3131" d="M51.027,119.149l-1.94-16.573a8.833,8.833,0,0,0-8.527-7.414H10.529A8.833,8.833,0,0,0,2,102.576L.061,119.149a8.165,8.165,0,0,0,.827,4.777,5.967,5.967,0,0,0,3.784,3.019,6.272,6.272,0,0,0,4.862-.678,7.031,7.031,0,0,0,3.06-3.849l1.725-5.192h.406a4.012,4.012,0,0,0,7.77,0h6.1a4.012,4.012,0,0,0,7.77,0h.406l1.725,5.192a7.032,7.032,0,0,0,3.061,3.849,6.277,6.277,0,0,0,4.862.678,5.965,5.965,0,0,0,3.784-3.019A8.165,8.165,0,0,0,51.027,119.149Zm-32.415-.919a2.006,2.006,0,1,1,2.006-2.006A2.008,2.008,0,0,1,18.612,118.23Zm13.865,0a2.006,2.006,0,1,1,2.006-2.006A2.008,2.008,0,0,1,32.477,118.23Zm13.42,6.778a4.6,4.6,0,0,1-5.5-3.222l-1.954-5.878a1,1,0,0,0-.952-.687h-1.13a4.012,4.012,0,0,0-7.77,0H22.5a4.012,4.012,0,0,0-7.77,0H13.6a1,1,0,0,0-.952.687l-1.954,5.878a4.6,4.6,0,0,1-5.5,3.222c-2.543-.681-3.408-3.316-3.138-5.625l1.94-16.573a6.84,6.84,0,0,1,6.535-5.642h7.493v5.015a3.012,3.012,0,0,0,3.008,3.009h0a1,1,0,0,0,0-2.006,1,1,0,0,1-1-1V97.168H31.06v5.015a1,1,0,0,1-1,1h0a1,1,0,1,0,0,2.006,3.012,3.012,0,0,0,3.009-3.009V97.168H40.56a6.84,6.84,0,0,1,6.535,5.642l1.94,16.573c.27,2.309-.6,4.944-3.138,5.626Z" transform="translate(0 -95.162)"/>
      <path id="Path_3132" data-name="Path 3132" d="M60.017,158.173a3.009,3.009,0,0,0-6.018,0,3.009,3.009,0,1,0,0,6.018,3.009,3.009,0,0,0,6.018,0h0a3.009,3.009,0,0,0,0-6.018Zm0,4.012h-1a1,1,0,0,0-1,1v1a1,1,0,1,1-2.006,0v-1a1,1,0,0,0-1-1H54a1,1,0,0,1,0-2.006h1a1,1,0,0,0,1-1v-1a1,1,0,0,1,2.006,0v1a1,1,0,0,0,1,1h1a1,1,0,0,1,0,2.006Z" transform="translate(-45.876 -149.146)"/>
      <path id="Path_3133" data-name="Path 3133" d="M347.418,158.173a3.009,3.009,0,0,0-6.018,0,3.009,3.009,0,1,0,0,6.018,3.009,3.009,0,0,0,6.018,0,3.009,3.009,0,0,0,0-6.018Zm0,4.012h-1a1,1,0,0,0-1,1v1a1,1,0,1,1-2.006,0v-1a1,1,0,0,0-1-1h-1a1,1,0,0,1,0-2.006h1a1,1,0,0,0,1-1v-1a1,1,0,0,1,2.006,0v1a1,1,0,0,0,1,1h1a1,1,0,0,1,0,2.006Z" transform="translate(-304.452 -149.146)"/>
      <path id="Path_3134" data-name="Path 3134" d="M222.67,215.163h-5.777a1,1,0,1,0,0,2.006h5.777a1,1,0,1,0,0-2.006Z" transform="translate(-194.237 -203.127)"/>
      <path id="Path_3135" data-name="Path 3135" d="M235.713,255.164h-2.5a1,1,0,1,0,0,2.006h2.5a1,1,0,1,0,0-2.006Z" transform="translate(-208.917 -239.117)"/>
      <path id="Path_3136" data-name="Path 3136" d="M245.69,177.167a1,1,0,0,0,0-2.006h0a1,1,0,0,0,0,2.006Z" transform="translate(-220.146 -167.137)"/>
    </g>
  </g>
</svg>
