<svg xmlns="http://www.w3.org/2000/svg" width="40" height="30" viewBox="0 0 40 30">
  <path id="icon-menu-9" d="M39.988,49.589a1.619,1.619,0,0,0-.037-.243,1.678,1.678,0,0,0-.06-.242c-.009-.025-.008-.051-.018-.075-.021-.049-.056-.088-.081-.135a1.637,1.637,0,0,0-.131-.217A1.547,1.547,0,0,0,39.5,48.5a1.717,1.717,0,0,0-.178-.161,1.634,1.634,0,0,0-.217-.131,1.375,1.375,0,0,0-.135-.081c-.024-.01-.051-.01-.075-.019a1.636,1.636,0,0,0-.238-.06,1.687,1.687,0,0,0-.248-.037c-.026,0-.05-.01-.076-.01H1.667c-.027,0-.052.011-.078.012a1.621,1.621,0,0,0-.243.037,1.677,1.677,0,0,0-.242.06c-.025.009-.051.008-.075.018-.049.021-.088.056-.135.081a1.635,1.635,0,0,0-.218.131A1.546,1.546,0,0,0,.5,48.5a1.717,1.717,0,0,0-.161.177,1.636,1.636,0,0,0-.131.217,1.377,1.377,0,0,0-.081.135c-.01.024-.01.05-.018.075a1.679,1.679,0,0,0-.06.242,1.733,1.733,0,0,0-.037.243c0,.027-.011.051-.011.077V76.333a1.73,1.73,0,0,0,.032.327c.01.049.028.095.043.142a1.706,1.706,0,0,0,.052.168,1.721,1.721,0,0,0,.084.16c.023.042.042.087.069.127a1.668,1.668,0,0,0,.462.462c.041.027.086.047.129.07a1.783,1.783,0,0,0,.158.083,1.729,1.729,0,0,0,.169.052c.048.014.093.032.142.043A1.769,1.769,0,0,0,1.667,78H38.333a1.731,1.731,0,0,0,.327-.032c.049-.01.095-.028.143-.043a1.729,1.729,0,0,0,.169-.053,1.682,1.682,0,0,0,.158-.083c.043-.023.087-.043.129-.07a1.679,1.679,0,0,0,.462-.462c.027-.041.046-.085.069-.128a1.532,1.532,0,0,0,.084-.16,1.713,1.713,0,0,0,.053-.168c.014-.048.032-.093.042-.143A1.86,1.86,0,0,0,40,76.333V49.667C40,49.64,39.99,49.616,39.988,49.589Zm-5.679,1.744L21.673,63.97a2.371,2.371,0,0,1-3.347,0L5.691,51.333ZM3.333,53.691,12.643,63l-9.31,9.31ZM5.69,74.667,15,65.357l.97.97a5.7,5.7,0,0,0,8.06,0l.97-.97,9.31,9.31ZM36.667,72.31,27.357,63l9.31-9.309Z" transform="translate(0 -48)"/>
</svg>
