<svg xmlns="http://www.w3.org/2000/svg" width="29.943" height="29.973" viewBox="318.015 354.663 29.943 29.973"><g data-name="ball"><path d="m340.021 364.617-3.034-2.319-3.034 2.319 1.169 3.784h3.73l1.17-3.784Z" fill="#55115d" fill-rule="evenodd" data-name="Path 3087"/><path d="m329.172 363.107-1.272-3.618a10.92 10.92 0 0 0-1.883 5.796l3.155-2.178Z" fill="#55115d" fill-rule="evenodd" data-name="Path 3088"/><path d="m341 364.83-1.226 3.97 1.924 2.496 4.632.111a10.91 10.91 0 0 0 1.601-4.926l-3.81-2.63-3.12.979Z" fill="#55115d" fill-rule="evenodd" data-name="Path 3089"/><path d="m332.974 364.83-3.121-.98-3.81 2.632a10.911 10.911 0 0 0 1.601 4.925l4.633-.111 1.923-2.496-1.226-3.97Z" fill="#55115d" fill-rule="evenodd" data-name="Path 3090"/><path d="m344.802 363.107 3.155 2.178a10.92 10.92 0 0 0-1.883-5.796l-1.272 3.618Z" fill="#55115d" fill-rule="evenodd" data-name="Path 3091"/><path d="m332.157 372.298-3.827.092a11.025 11.025 0 0 0 4.925 3.586l-1.098-3.678Z" fill="#55115d" fill-rule="evenodd" data-name="Path 3092"/><path d="M337.486 358.301v3.122l3.213 2.455 3.118-.979 1.532-4.359a11.03 11.03 0 0 0-4.185-3.05l-3.678 2.811Z" fill="#55115d" fill-rule="evenodd" data-name="Path 3093"/><path d="m341.818 372.298-1.098 3.678a11.026 11.026 0 0 0 4.925-3.586l-3.827-.092Z" fill="#55115d" fill-rule="evenodd" data-name="Path 3094"/><path d="m340.897 371.892-1.922-2.492H335l-1.92 2.492 1.32 4.428a10.957 10.957 0 0 0 5.176 0l1.322-4.428Z" fill="#55115d" fill-rule="evenodd" data-name="Path 3095"/><path d="m334.136 355.246 2.851 2.18 2.852-2.18.195-.15a10.937 10.937 0 0 0-6.094 0l.196.15Z" fill="#55115d" fill-rule="evenodd" data-name="Path 3096"/><path d="m330.158 362.9 3.118.978 3.212-2.455V358.3l-2.959-2.261-.718-.55a11.028 11.028 0 0 0-4.186 3.05l1.533 4.36Z" fill="#55115d" fill-rule="evenodd" data-name="Path 3097"/><path d="M331.224 384.636a.498.498 0 0 1-.353-.852l4.59-4.59a.5.5 0 1 1 .705.706l-4.59 4.59a.498.498 0 0 1-.352.146Z" fill="#55115d" fill-rule="evenodd" data-name="Path 3098"/><path d="M325.575 383.93a.498.498 0 0 1-.353-.852l4.59-4.59a.5.5 0 1 1 .705.706l-4.59 4.59a.498.498 0 0 1-.352.146Z" fill="#55115d" fill-rule="evenodd" data-name="Path 3099"/><path d="M318.514 371.926a.498.498 0 0 1-.353-.852l4.942-4.943a.5.5 0 1 1 .707.706l-4.943 4.943a.498.498 0 0 1-.353.146Z" fill="#55115d" fill-rule="evenodd" data-name="Path 3100"/><path d="M319.22 377.575a.498.498 0 0 1-.353-.852l4.59-4.59a.5.5 0 1 1 .706.706l-4.59 4.59a.498.498 0 0 1-.353.146Z" fill="#55115d" fill-rule="evenodd" data-name="Path 3101"/><path d="M319.926 383.224a.498.498 0 0 1-.353-.852l6.355-6.355a.5.5 0 1 1 .706.706l-6.355 6.355a.498.498 0 0 1-.353.146Z" fill="#55115d" fill-rule="evenodd" data-name="Path 3102"/></g></svg>