<svg xmlns="http://www.w3.org/2000/svg" width="42" height="42" viewBox="273.5 457.163 42 42"><g data-name="goal"><path d="m315.3 486.667-4.096 1.33-1.591 4.906 2.527 3.476a10.43 10.43 0 0 0 3.16-9.712Z" fill-rule="evenodd" data-name="Path 3079"/><path d="m307.355 491.889 1.427-4.398-3.738-2.717-3.738 2.717 1.427 4.398h4.622Z" fill-rule="evenodd" data-name="Path 3080"/><path d="M314.537 484.327c-1.495-3.23-4.59-5.572-8.263-6.004v4.303l4.17 3.031 4.093-1.33Z" fill-rule="evenodd" data-name="Path 3081"/><path d="m295.55 484.327 4.094 1.33 4.17-3.03v-4.304c-3.673.432-6.768 2.775-8.264 6.004Z" fill-rule="evenodd" data-name="Path 3082"/><path d="m298.883 487.997-4.095-1.33a10.43 10.43 0 0 0 3.16 9.712l2.526-3.476-1.591-4.906Z" fill-rule="evenodd" data-name="Path 3083"/><path d="m302.465 494.35-2.528 3.478a10.392 10.392 0 0 0 5.107 1.335c1.853 0 3.595-.486 5.107-1.335l-2.529-3.478h-5.157Z" fill-rule="evenodd" data-name="Path 3084"/><path d="M307.592 463.665v12.377a12.864 12.864 0 0 1 5.272 2.39v-14.767a6.502 6.502 0 0 0-6.502-6.502h-26.36a6.502 6.502 0 0 0-6.502 6.502v21.088c0 .68.55 1.23 1.23 1.23h2.811c.68 0 1.23-.55 1.23-1.23v-21.088c0-.68.552-1.23 1.231-1.23h26.36c.68 0 1.23.55 1.23 1.23Z" fill-rule="evenodd" data-name="Path 3085"/><path d="M297.469 478.25h-.42v-2.81h2.81v1.437a12.811 12.811 0 0 1 2.461-.798v-.64h2.811v-2.46h-2.81v-2.812h2.81v-2.46h-2.81v-2.811h-2.462v2.81h-2.81v-2.81h-2.462v2.81h-2.81v-2.81h-2.461v2.81h-2.811v-2.81h-2.461v2.81h-2.811v2.461h2.81v2.811h-2.81v2.461h2.81v2.811h-2.81v2.461h13.672c.738-.933 1.6-1.761 2.564-2.46Zm-.42-8.083h2.81v2.811h-2.81v-2.81Zm-7.733 8.083h-2.811v-2.81h2.81v2.81Zm0-5.272h-2.811v-2.81h2.81v2.81Zm5.271 5.272h-2.81v-2.81h2.81v2.81Zm0-5.272h-2.81v-2.81h2.81v2.81Z" fill-rule="evenodd" data-name="Path 3086"/></g></svg>