<svg xmlns="http://www.w3.org/2000/svg" width="18.128" height="18.128"><g data-name="Group 1"><path d="M10.712 3.443V2.032C10.712-.678 0-.678 0 2.032v8.254c0 1.065 1.667 1.73 3.673 1.965-.734.33-1.2.774-1.2 1.337v2.477c0 1.354 2.694 2.063 5.355 2.063 2.662 0 5.356-.709 5.356-2.063V14.82c2.52-.07 4.945-.772 4.945-2.057v-7.43c0-1.71-4.269-2.34-7.417-1.89ZM5.356.823c2.933 0 4.532.817 4.532 1.237 0 .42-1.6 1.236-4.532 1.236S.824 2.479.824 2.06c0-.42 1.6-1.236 4.532-1.236ZM.824 3.207c1 .602 2.77.914 4.532.914s3.533-.312 4.532-.914v.41c-1.432.317-2.472.897-2.472 1.74V5.6c-.646.103-1.343.168-2.06.168-2.932 0-4.532-.816-4.532-1.236V3.206Zm7.416 8.24c.079.048.16.094.248.137a15.925 15.925 0 0 0-.248-.009v-.127ZM.824 5.679c1 .602 2.77.914 4.532.914.713 0 1.407-.064 2.06-.162v2.054c-.646.103-1.343.168-2.06.168-2.932 0-4.532-.816-4.532-1.236V5.678Zm0 4.622V8.562c1 .602 2.77.914 4.532.914.713 0 1.407-.064 2.06-.162v2.054c-.646.103-1.343.168-2.06.168-2.932 0-4.532-.816-4.532-1.236Zm11.536 5.768c0 .42-1.6 1.236-4.532 1.236s-4.532-.816-4.532-1.236v-1.325c1 .601 2.77.913 4.532.913 1.686 0 3.383-.285 4.402-.837.043.002.087.002.13.003v1.246Zm-4.532-1.236c-2.932 0-4.532-.816-4.532-1.236 0-.42 1.6-1.236 4.532-1.236 2.933 0 4.532.816 4.532 1.236 0 .42-1.6 1.236-4.532 1.236Zm9.476-2.06c0 .399-1.46 1.148-4.12 1.222v-.398c0-.515-.39-.93-1.018-1.25.202.009.404.014.606.014 1.762 0 3.533-.312 4.532-.913v1.325Zm0-2.472c0 .42-1.6 1.236-4.532 1.236S8.24 10.72 8.24 10.3V8.974c1 .602 2.77.914 4.532.914s3.533-.312 4.532-.914V10.3Zm0-2.472c0 .42-1.6 1.236-4.532 1.236S8.24 8.248 8.24 7.828V6.502c1 .602 2.77.914 4.532.914s3.533-.312 4.532-.914v1.326Zm-4.532-1.236c-2.932 0-4.532-.816-4.532-1.236 0-.42 1.6-1.236 4.532-1.236 2.933 0 4.532.816 4.532 1.236 0 .42-1.6 1.236-4.532 1.236Z" fill="#3c3c3c" fill-rule="evenodd" data-name="Path 140"/></g></svg>