<svg xmlns="http://www.w3.org/2000/svg" width="27.769" height="26.675" viewBox="320.115 354.663 27.769 26.675"><g data-name="score"><path d="M320.115 378.965h27.77v2.372h-27.77v-2.372Z" fill="#55115d" fill-rule="evenodd" data-name="Path 3103"/><path d="M333.186 354.663h1.628v2.477h-1.628v-2.477Z" fill="#55115d" fill-rule="evenodd" data-name="Path 3104"/><path d="M333.186 357.14h-3.583v2.477h-1.627v-2.477h-3.583v2.477h-1.627v-2.477h-2.65v20.198h13.07V357.14Zm-4.295 16.429h-4.48v-1.627h1.426v-7.632h-1.426v-1.627h3.053v9.259h1.427v1.627Z" fill="#55115d" fill-rule="evenodd" data-name="Path 3105"/><path d="M327.976 354.663h1.627v2.477h-1.627v-2.477Z" fill="#55115d" fill-rule="evenodd" data-name="Path 3106"/><path d="M322.766 354.663h1.627v2.477h-1.627v-2.477Z" fill="#55115d" fill-rule="evenodd" data-name="Path 3107"/><path d="M338.397 354.663h1.627v2.477h-1.627v-2.477Z" fill="#55115d" fill-rule="evenodd" data-name="Path 3108"/><path d="M343.607 354.663h1.627v2.477h-1.627v-2.477Z" fill="#55115d" fill-rule="evenodd" data-name="Path 3109"/><path d="M345.234 357.14v2.477h-1.627v-2.477h-3.583v2.477h-1.627v-2.477h-3.583v20.198h13.07V357.14h-2.65Zm-1.645 16.429h-4.48v-1.627h1.426v-7.632h-1.426v-1.627h3.054v9.259h1.426v1.627Z" fill="#55115d" fill-rule="evenodd" data-name="Path 3110"/></g></svg>