<svg xmlns="http://www.w3.org/2000/svg" width="25.497" height="25.497" viewBox="123.5 691.252 25.497 25.497"><g data-name="statistic"><path d="M137.948 694.651a.85.85 0 0 0-.85.85v9.349h-9.349a.85.85 0 0 0-.85.85c0 6.102 4.947 11.048 11.05 11.048 6.101 0 11.048-4.946 11.048-11.048s-4.947-11.049-11.049-11.049Zm0 20.398a9.361 9.361 0 0 1-9.31-8.5h9.31c.47 0 .85-.38.85-.85v-9.31a9.349 9.349 0 0 1-.85 18.66Z" fill="#fff" fill-rule="evenodd" data-name="Path 3076"/><path d="M134.549 703.15c.469 0 .85-.38.85-.85v-10.198a.85.85 0 0 0-.85-.85c-6.1.007-11.042 4.95-11.049 11.048 0 .47.38.85.85.85h10.199Zm-.85-10.16v8.46h-8.461a9.364 9.364 0 0 1 8.46-8.46Z" fill="#fff" fill-rule="evenodd" data-name="Path 3077"/></g></svg>