<svg xmlns="http://www.w3.org/2000/svg" width="26.853" height="26.847" viewBox="325.12 354.663 26.853 26.847"><g data-name="substitute"><path d="m337.128 366.118.666-.167v-4.381l2.825-.987-1.84-4.934-3.94-.986c-.607.31-1.288.46-1.966.46a4.386 4.386 0 0 1-1.974-.46l-3.94.986-1.84 4.934 2.825.987v8.146h7.843l1.341-3.598Zm-4.33-.874-1.443-.625 1.58-3.65h-1.799v-1.572h3.345l.511.779-2.193 5.068Z" fill="#55115d" fill-rule="evenodd" data-name="Path 3111"/><path d="m350.134 367.443-3.94-.987c-.608.31-1.289.46-1.967.46a4.386 4.386 0 0 1-1.974-.46l-3.94.987-1.84 4.934 2.825.986v8.146h9.85v-8.146l2.825-.986-1.84-4.934Zm-3.881 9.515h-1.573v-1.13h-2.464l-.554-.764 1.937-4.06 1.42.678-1.229 2.574h.89v-.54h1.573v3.242Z" fill="#55115d" fill-rule="evenodd" data-name="Path 3112"/><path d="m344.494 361.4 1.113 1.112 2.325-2.325-2.323-2.323-1.113 1.112.426.425h-2.036v1.573h2.034l-.426.426Z" fill="#55115d" fill-rule="evenodd" data-name="Path 3113"/><path d="m332.604 374.772-1.112-1.112-2.325 2.325 2.323 2.323 1.113-1.112-.426-.426h2.036v-1.573h-2.034l.425-.425Z" fill="#55115d" fill-rule="evenodd" data-name="Path 3114"/></g></svg>