<svg xmlns="http://www.w3.org/2000/svg" width="19.63" height="31.626"><g data-name="027---Red-Card"><path d="M9.27 21.81H5.453a1.636 1.636 0 0 1-1.636-1.635V1.635C3.817.733 4.549 0 5.453 0h12.541c.903 0 1.636.732 1.636 1.636v18.54c0 .903-.733 1.635-1.636 1.635H9.27Z" fill="#ffb100" fill-rule="evenodd" data-name="Path"/><path d="M18.507 27.525a4.096 4.096 0 0 1-4.1 4.1H7.142a3.803 3.803 0 0 1-2.824-1.248L.992 26.718A3.817 3.817 0 0 1 0 24.15v-5.807c0-1.246.608-2.413 1.63-3.124l2.187-1.533v6.49c0 .903.732 1.635 1.636 1.635H9.27v-9.428a2.546 2.546 0 0 1 2.524-2.568 2.46 2.46 0 0 1 2.383 2.454v5.905a4.417 4.417 0 0 0 1.772 3.506l.164.13c.546.436 1.024.95 1.418 1.528v.005a6.404 6.404 0 0 1 .976 4.182Z" fill="#fdd7ad" fill-rule="evenodd" data-name="Path"/><path d="M9.27 21.81v1.637a.545.545 0 1 1-1.09 0V21.81h1.09Z" fill="#f9c795" fill-rule="evenodd" data-name="Path"/><path d="M5.998 4.362a.545.545 0 0 1-.545-.545V2.18c0-.301.244-.545.545-.545h1.636a.545.545 0 1 1 0 1.09h-1.09v1.09a.545.545 0 0 1-.546.546Z" fill="#fff" fill-rule="evenodd" data-name="Path"/></g></svg>