<svg xmlns="http://www.w3.org/2000/svg" width="12.797" height="18.068" viewBox="0 0 12.797 18.068"><defs><style>.a{fill:#3c3c3c;}</style></defs><path class="a" d="M11.154,15.81h-.565v-.941a.942.942,0,0,0-.941-.941H7.954V10.342a3.383,3.383,0,0,0,2.16-2.46l.157-.731h.14c2.5,0,2.8-4.309,2.812-4.495a.377.377,0,0,0-.376-.4H11.323l.387-1.8A.376.376,0,0,0,11.342,0H2.308A.376.376,0,0,0,1.94.455l.387,1.8H.8a.377.377,0,0,0-.376.4c.012.185.311,4.495,2.813,4.495h.138l.157.731a3.384,3.384,0,0,0,2.16,2.46v3.586H4a.942.942,0,0,0-.941.941v.941H2.5a.942.942,0,0,0-.941.941v1.317H12.1V16.751A.942.942,0,0,0,11.154,15.81Zm1.274-12.8c-.13.968-.593,3.352-1.994,3.386l.728-3.386Zm-11.2,0H2.489l.727,3.383C1.826,6.369,1.353,3.978,1.224,3.011ZM4.272,7.724,2.774.753h8.1l-1.5,6.971a2.612,2.612,0,0,1-5.107,0ZM6.449,10.54H7.2v3.388H6.449ZM3.814,14.869A.189.189,0,0,1,4,14.68H9.648a.188.188,0,0,1,.188.188v.941H3.814Zm7.528,2.447H2.308v-.565a.188.188,0,0,1,.188-.188h8.658a.188.188,0,0,1,.188.188Zm0,0" transform="translate(-0.427)"/></svg>